<svg width="61" height="67" viewBox="0 0 61 67" fill="none" xmlns="http://www.w3.org/2000/svg">
<path d="M49.6899 19.8793L28.044 40.6466L18.205 31.2069" stroke="#DCF5F7" stroke-width="4" stroke-linecap="round" stroke-linejoin="round"/>
<path d="M49.6889 19.8793C53.9772 23.9935 56.7306 29.3504 57.5222 35.119C58.3138 40.8876 57.0992 46.7456 54.067 51.7844C51.0347 56.8233 46.3541 60.7614 40.7512 62.988C35.1483 65.2146 28.9362 65.6053 23.0783 64.0994C17.2204 62.5935 12.0441 59.2752 8.35229 54.6591C4.66044 50.0431 2.65933 44.3873 2.65933 38.5689" stroke="#DCF5F7" stroke-width="4" stroke-linecap="round"/>
<path d="M2.65933 38.7587C2.65933 38.7587 2.65933 -3.07919 2.65933 1.32479" stroke="#DCF5F7" stroke-width="4" stroke-linecap="round"/>
<path d="M58.0664 2.6842C58.0664 2.6842 -5.16506 2.6842 1.49088 2.6842" stroke="#DCF5F7" stroke-width="4" stroke-linecap="round"/>
</svg>
